# xmcd
#
# Track frame offsets:
# 215
# 12570
# 26542
# 38907
# 50595
# 61457
# 72980
# 83525
# 96080
# 109997
# 120270
# 132997
# 144357
# 154425
# 169277
# 184300
# 198100
# 209187
#
# Disc length: 2946 seconds
#
#
# Revision: 0
# Processed by: cddbd v1.5.2PL0 Copyright (c) Steve Scherf et al.
# Submitted via: FreeRIP 2.51 
#
DISCID=080b8012
DTITLE=Sonny Terry and Brownie McGhee - Hometown Blues
DYEAR=1900
DGENRE=Blues
TTITLE0=Mean old Frisco
TTITLE1=Man aint nothin but a fool
TTITLE2=The woman is killing me
TTITLE3=Meet you in the morning
TTITLE4=Stranger blues
TTITLE5=Feel so good
TTITLE6=Forgive me
TTITLE7=SWittin on top of the world
TTITLE8=Crying the blues
TTITLE9=Key to the highway
TTITLE10=Ease my worried mind
TTITLE11=Bulldog blues
TTITLE12=CC Rider
TTITLE13=Going down slow
TTITLE14=Bad blood
TTITLE15=Lightnin's blues
TTITLE16=Dissatisfied woman
TTITLE17=Pawn shop blues
EXTD=
EXTT0=
EXTT1=
EXTT2=
EXTT3=
EXTT4=
EXTT5=
EXTT6=
EXTT7=
EXTT8=
EXTT9=
EXTT10=
EXTT11=
EXTT12=
EXTT13=
EXTT14=
EXTT15=
EXTT16=
EXTT17=
PLAYORDER=
